<?xml version="1.0"?><svg width="1600" height="1200" xmlns="http://www.w3.org/2000/svg">
 <title>sdf</title>
 <g>
  <title>Layer 1</title>
  <g id="svg_64">
   <polyline id="svg_1" fill-rule="evenodd" clip-rule="evenodd" fill="#26BCD6" points="409.6422119140625,95.0352783203125 259.02259826660156,255.6117706298828 162.18902587890625,396.53973388671875 133.50624465942383,530.8933715820312 126.34139060974121,675.1138305664062 187.30397033691406,838.9722290039062 305.64378356933594,986.4266357421875 449.0810546875,1101.1317138671875 674.998779296875,1166.68359375 857.898193359375,1179.773681640625 1090.9574584960938,1130.631103515625 1302.5396728515625,1015.9153442382812 1424.46484375,878.2798461914062 1481.842041015625,688.2093505859375 1481.842041015625,491.57501220703125 1438.82958984375,337.5409240722656 1331.2574462890625,209.74038696289062 1205.7352294921875,117.97096252441406 1083.8101196289062,68.82307434082031 965.4702758789062,36.04179000854492 818.44775390625,16.387969970703125 718.0287475585938,13.111440658569336 574.5973815917969,39.3289909362793 409.6422119140625,95.0352783203125 "/>
   <polyline id="svg_2" fill-rule="evenodd" clip-rule="evenodd" fill="#CCEAEE" points="1047.9391479492188,127.8165512084961 965.4702758789062,98.317138671875 868.6367797851562,81.9291763305664 778.9971923828125,88.4928970336914 721.6199951171875,127.8165512084961 728.7965087890625,190.0758819580078 807.6799926757812,245.78750610351562 926.0198364257812,301.4991455078125 1040.7684326171875,386.7048645019531 1144.772705078125,485.0166320800781 1198.558837890625,583.3284301757812 1216.5030517578125,658.7098999023438 1212.888427734375,740.6336669921875 1202.14990234375,776.670166015625 1241.6004638671875,789.7922973632812 1281.0626220703125,740.6336669921875 1306.1541748046875,661.9918212890625 1306.1541748046875,586.6102905273438 1288.2099609375,465.35748291015625 1216.5030517578125,301.4991455078125 1123.2373046875,186.78868103027344 1047.9391479492188,127.8165512084961 "/>
   <polyline id="svg_3" fill-rule="evenodd" clip-rule="evenodd" fill="#26BCD6" points="423.9777526855469,108.14672088623047 395.29498291015625,150.7469024658203 398.8803405761719,213.01158142089844 456.251708984375,275.2815856933594 610.4450378417969,337.5409240722656 753.8997802734375,380.1464538574219 850.7275390625,435.85809326171875 933.1904907226562,524.3456420898438 979.8350830078125,606.2747802734375 1012.1090087890625,691.48583984375 1037.2005615234375,812.72265625 1037.2005615234375,953.6453247070312 1012.1090087890625,1048.696533203125 965.4702758789062,1117.498291015625 879.386962890625,1166.68359375 757.490966796875,1173.2205810546875 560.2501525878906,1140.4447021484375 398.8803405761719,1074.887451171875 276.9551696777344,973.3311157226562 180.12743377685547,832.4031372070312 126.34139060974121,625.9285888671875 151.4388198852539,455.52789306640625 201.65120697021484,308.046875 291.2965545654297,199.90013122558594 423.9777526855469,108.14672088623047 "/>
   <polyline id="svg_4" fill-rule="evenodd" clip-rule="evenodd" fill="#EDEDED" points="1259.5272216796875,163.8583221435547 1281.0626220703125,262.17547607421875 1248.78857421875,321.1529541015625 1306.1541748046875,367.04034423828125 1399.367431640625,475.18170166015625 1395.811279296875,534.1805419921875 1489.0128173828125,583.3284301757812 1449.568115234375,383.42828369140625 1370.7080078125,249.0640411376953 1259.5272216796875,163.8583221435547 "/>
   <polyline id="svg_5" fill-rule="evenodd" clip-rule="evenodd" fill="#54B948" points="169.37139511108398,835.6636962890625 269.7786407470703,720.9852294921875 273.3698272705078,848.7858276367188 327.15003967285156,861.907958984375 330.7353820800781,1012.6387329101562 226.74279022216797,927.43310546875 169.37139511108398,835.6636962890625 "/>
   <polyline id="svg_6" fill-rule="evenodd" clip-rule="evenodd" fill="#54B948" points="1367.093505859375,933.9915161132812 1370.7080078125,852.0623168945312 1334.8135986328125,789.7922973632812 1273.8802490234375,730.798828125 1288.2099609375,576.7807006835938 1385.0377197265625,544.0048217773438 1474.69482421875,547.28662109375 1481.842041015625,675.1138305664062 1446.000244140625,822.5682373046875 1367.093505859375,933.9915161132812 "/>
   <polyline id="svg_7" fill-rule="evenodd" clip-rule="evenodd" fill="#CCEAEE" points="664.2427368164062,1160.1251220703125 778.9971923828125,1117.498291015625 897.3312377929688,1107.6846923828125 1055.1273803710938,1088.004150390625 1033.5861206054688,1143.72119140625 890.1780395507812,1173.2205810546875 761.0587768554688,1183.0555419921875 664.2427368164062,1160.1251220703125 "/>
   <polyline id="svg_8" fill-rule="evenodd" clip-rule="evenodd" fill="#54B948" points="172.95674514770508,396.53973388671875 226.74279022216797,435.85809326171875 201.65120697021484,544.0048217773438 126.34139060974121,589.8868408203125 172.95674514770508,396.53973388671875 "/>
   <polyline id="svg_9" fill-rule="evenodd" clip-rule="evenodd" fill="#54B948" points="818.44775390625,1068.355712890625 789.7474365234375,947.0869140625 796.9298095703125,871.7161865234375 689.3460083007812,799.6058959960938 707.2727661132812,727.5436401367188 725.211181640625,665.2416381835938 836.36279296875,616.1204223632812 965.4702758789062,576.7807006835938 1047.9391479492188,583.3284301757812 1155.51123046875,622.6574096679688 1159.125732421875,707.8577880859375 1137.6019287109375,858.599365234375 1062.2980346679688,881.5296630859375 1026.444580078125,881.5296630859375 947.5610961914062,920.8961181640625 915.28125,983.1393432617188 900.9165649414062,1032.2926025390625 829.1862182617188,1091.2861328125 818.44775390625,1068.355712890625 "/>
   <polyline id="svg_10" fill-rule="evenodd" clip-rule="evenodd" fill="#54B948" points="506.45245361328125,517.7872314453125 556.6648254394531,570.2223510742188 585.3475646972656,596.4345092773438 743.1437377929688,661.9918212890625 796.9298095703125,639.0560302734375 775.4002075195312,622.6574096679688 786.1737670898438,557.1109008789062 739.5525512695312,534.1805419921875 692.9371948242188,580.0625610351562 642.724853515625,553.8344116210938 657.0662231445312,498.1334228515625 506.45245361328125,517.7872314453125 "/>
   <polyline id="svg_11" fill-rule="evenodd" clip-rule="evenodd" fill="#54B948" points="621.2185974121094,72.10492706298828 732.3760375976562,62.25933837890625 775.4002075195312,72.10492706298828 753.8997802734375,111.4232406616211 685.7548828125,95.0352783203125 642.724853515625,95.0352783203125 621.2185974121094,72.10492706298828 "/>
   <polyline id="svg_12" fill-rule="evenodd" clip-rule="evenodd" fill="#49A942" points="628.3834228515625,131.0770721435547 531.5615234375,167.13487243652344 506.45245361328125,219.56996154785156 409.6422119140625,321.1529541015625 416.8012390136719,380.1464538574219 409.6422119140625,448.9695129394531 441.91619873046875,530.8933715820312 484.9461975097656,599.7164306640625 499.2875671386719,521.069091796875 556.6648254394531,580.0625610351562 649.9013671875,511.2395324707031 743.1437377929688,462.0755920410156 800.51513671875,448.9695129394531 832.806640625,527.6168212890625 865.0571899414062,448.9695129394531 904.5076904296875,429.3103332519531 961.8849487304688,370.31683349609375 1055.1273803710938,285.1111755371094 1033.5861206054688,239.22378540039062 900.9165649414062,321.1529541015625 947.5610961914062,242.50564575195312 1037.2005615234375,170.4220733642578 958.2996215820312,121.25282287597656 886.5634765625,144.18850708007812 818.44775390625,216.2880859375 818.44775390625,294.9407653808594 789.7474365234375,301.4991455078125 764.6558227539062,255.6117706298828 692.9371948242188,255.6117706298828 685.7548828125,219.56996154785156 700.10205078125,157.2946014404297 685.7548828125,137.6407928466797 628.3834228515625,131.0770721435547 "/>
   <polyline id="svg_13" fill-rule="evenodd" clip-rule="evenodd" points="814.8565063476562,9.82957935333252 710.8639526367188,0 603.2801818847656,16.387969970703125 502.8787841796875,42.60551834106445 438.3249816894531,72.10492706298828 373.7712097167969,111.4232406616211 309.22914123535156,160.57647705078125 241.09002685546875,239.22378540039062 201.65120697021484,291.6695556640625 162.18902587890625,363.75848388671875 133.50624465942383,429.3103332519531 115.59118676185608,517.7872314453125 112,599.7164306640625 122.7502031326294,701.3047485351562 151.4388198852539,789.7922973632812 187.30397033691406,878.2798461914062 233.92516326904297,947.0869140625 294.8877410888672,1012.6387329101562 363.0151824951172,1068.355712890625 449.0810546875,1117.498291015625 538.7264099121094,1150.279541015625 639.1453247070312,1176.4971923828125 746.7174072265625,1192.8690185546875 847.1422119140625,1196.1510009765625 951.1113891601562,1186.310791015625 1073.0482788085938,1156.811279296875 1151.955078125,1130.631103515625 1248.78857421875,1071.63232421875 1334.8135986328125,1006.0804443359375 1381.446533203125,950.3687744140625 1438.82958984375,861.907958984375 1460.364990234375,789.7922973632812 1463.921142578125,743.9155883789062 1446.000244140625,714.4215698242188 1438.82958984375,763.580078125 1424.46484375,816.0045166015625 1385.0377197265625,871.7161865234375 1381.446533203125,832.4031372070312 1356.3548583984375,838.9722290039062 1359.9052734375,874.9979858398438 1363.531494140625,914.3377075195312 1306.1541748046875,963.4641723632812 1270.2598876953125,1006.0804443359375 1205.7352294921875,1045.3880615234375 1141.1815185546875,1081.4459228515625 1090.9574584960938,1110.9453125 990.5735473632812,1133.8756103515625 883.00146484375,1146.9976806640625 782.58251953125,1150.279541015625 682.18115234375,1143.72119140625 603.2801818847656,1117.498291015625 492.1110534667969,1084.75439453125 420.3924255371094,1042.13818359375 359.42401123046875,992.9583129882812 273.3698272705078,927.43310546875 219.57794189453125,848.7858276367188 187.30397033691406,786.5103759765625 162.18902587890625,714.4215698242188 151.4388198852539,652.1514892578125 147.8476333618164,599.7164306640625 158.61535263061523,527.6168212890625 172.95674514770508,458.7937316894531 205.2365493774414,376.8645935058594 259.02259826660156,281.8293151855469 312.8086395263672,219.56996154785156 366.60638427734375,160.57647705078125 441.91619873046875,104.86486053466797 531.5615234375,68.82307434082031 610.4450378417969,42.60551834106445 721.6199951171875,26.217548370361328 814.8565063476562,9.82957935333252 "/>
   <polyline id="svg_14" fill-rule="evenodd" clip-rule="evenodd" points="922.4520263671875,19.669830322265625 1044.353759765625,49.153236389160156 1130.413818359375,78.65264892578125 1216.5030517578125,114.70511627197266 1291.8011474609375,163.8583221435547 1395.811279296875,258.8989562988281 1449.568115234375,344.10467529296875 1481.842041015625,409.6458435058594 1503.37744140625,481.7454528808594 1514.115966796875,557.1109008789062 1506.9337158203125,642.3112182617188 1485.45654296875,734.0806884765625 1474.69482421875,678.3637084960938 1456.73876953125,619.3702392578125 1460.364990234375,557.1109008789062 1453.1826171875,462.0755920410156 1431.641357421875,399.8162536621094 1399.367431640625,337.5409240722656 1363.531494140625,281.8293151855469 1316.8927001953125,239.22378540039062 1223.6561279296875,160.57647705078125 1144.772705078125,114.70511627197266 1058.6776733398438,85.20570373535156 961.8849487304688,49.153236389160156 922.4520263671875,19.669830322265625 "/>
   <polyline id="svg_15" fill-rule="evenodd" clip-rule="evenodd" points="187.30397033691406,367.04034423828125 259.02259826660156,308.046875 305.64378356933594,285.1111755371094 377.3624267578125,249.0640411376953 463.4165954589844,209.74038696289062 502.8787841796875,203.1820068359375 502.8787841796875,216.2880859375 438.3249816894531,245.78750610351562 352.25914001464844,288.3930358886719 269.7786407470703,340.82281494140625 169.37139511108398,399.8162536621094 187.30397033691406,367.04034423828125 "/>
   <polyline id="svg_16" fill-rule="evenodd" clip-rule="evenodd" points="140.6827793121338,593.168701171875 162.18902587890625,563.6746215820312 194.46883392333984,553.8344116210938 219.57794189453125,547.28662109375 223.15744018554688,530.8933715820312 230.33397674560547,481.7454528808594 244.68121337890625,439.1399230957031 241.09002685546875,419.4701232910156 176.5362548828125,389.9760437011719 162.18902587890625,422.751953125 201.65120697021484,432.5815734863281 201.65120697021484,462.0755920410156 190.89515686035156,494.8515625 183.71862030029297,527.6168212890625 165.78020858764648,544.0048217773438 133.50624465942383,550.5631713867188 140.6827793121338,593.168701171875 "/>
   <polyline id="svg_17" fill-rule="evenodd" clip-rule="evenodd" points="140.6827793121338,694.7356567382812 198.06000518798828,639.0560302734375 269.7786407470703,576.7807006835938 345.08843994140625,527.6168212890625 416.8012390136719,491.57501220703125 492.1110534667969,462.0755920410156 574.5973815917969,439.1399230957031 359.42401123046875,557.1109008789062 294.8877410888672,599.7164306640625 248.2665557861328,629.2158203125 194.46883392333984,675.1138305664062 144.2739601135254,720.9852294921875 140.6827793121338,694.7356567382812 "/>
   <polyline id="svg_18" fill-rule="evenodd" clip-rule="evenodd" points="180.12743377685547,822.5682373046875 223.15744018554688,750.4846801757812 269.7786407470703,707.8577880859375 294.8877410888672,720.9852294921875 284.12001037597656,842.2167358398438 319.9851837158203,842.2167358398438 341.49725341796875,858.599365234375 348.6796417236328,894.6517944335938 352.25914001464844,947.0869140625 409.6422119140625,891.4019775390625 474.1901550292969,848.7858276367188 545.9087524414062,816.0045166015625 621.2185974121094,779.9786987304688 721.6199951171875,743.9155883789062 814.8565063476562,734.0806884765625 879.386962890625,734.0806884765625 854.2836303710938,753.7291870117188 728.7965087890625,779.9786987304688 646.3101806640625,806.164306640625 578.1827392578125,838.9722290039062 506.45245361328125,871.7161865234375 438.3249816894531,914.3377075195312 366.60638427734375,973.3311157226562 359.42401123046875,1022.4577026367188 319.9851837158203,989.703125 319.9851837158203,894.6517944335938 316.39398193359375,878.2798461914062 291.2965545654297,865.1577758789062 266.1874542236328,865.1577758789062 255.43141174316406,848.7858276367188 259.02259826660156,760.2982788085938 237.49884033203125,789.7922973632812 226.74279022216797,816.0045166015625 201.65120697021484,852.0623168945312 180.12743377685547,822.5682373046875 "/>
   <polyline id="svg_19" fill-rule="evenodd" clip-rule="evenodd" points="366.60638427734375,353.9342041015625 348.6796417236328,396.53973388671875 337.9177551269531,462.0755920410156 330.7353820800781,544.0048217773438 341.49725341796875,622.6574096679688 352.25914001464844,694.7356567382812 366.60638427734375,760.2982788085938 391.6979675292969,819.2864379882812 423.9777526855469,901.215576171875 463.4165954589844,960.2090454101562 510.0436096191406,1012.6387329101562 578.1827392578125,1071.63232421875 696.5225219726562,1166.68359375 789.7474365234375,1176.4971923828125 746.7174072265625,1137.1842041015625 793.3444213867188,1124.0673828125 875.8250122070312,1114.22705078125 900.9165649414062,1124.0673828125 936.78173828125,1124.0673828125 969.0381469726562,1110.9453125 1026.444580078125,1104.3814697265625 1026.444580078125,1137.1842041015625 1083.8101196289062,1101.1317138671875 1155.51123046875,1048.696533203125 1216.5030517578125,992.9583129882812 1259.5272216796875,950.3687744140625 1291.8011474609375,891.4019775390625 1263.112548828125,894.6517944335938 1245.168212890625,917.5874633789062 1209.326416015625,953.6453247070312 1180.614501953125,996.261474609375 1105.3222045898438,1051.9517822265625 1051.5303344726562,1084.75439453125 990.5735473632812,1084.75439453125 947.5610961914062,1091.2861328125 918.8374633789062,1097.849853515625 936.78173828125,1068.355712890625 961.8849487304688,1012.6387329101562 940.3728637695312,1025.7662353515625 911.660888671875,1065.0738525390625 893.739990234375,1088.004150390625 811.2711791992188,1104.3814697265625 768.2353515625,1114.22705078125 725.211181640625,1114.22705078125 682.18115234375,1097.849853515625 639.1453247070312,1071.63232421875 585.3475646972656,1025.7662353515625 538.7264099121094,979.8628540039062 492.1110534667969,927.43310546875 456.251708984375,878.2798461914062 423.9777526855469,816.0045166015625 402.4540100097656,757.0377197265625 384.5331115722656,704.5812377929688 373.7712097167969,639.0560302734375 366.60638427734375,560.3927612304688 359.42401123046875,475.18170166015625 370.1975402832031,416.2042541503906 373.7712097167969,380.1464538574219 366.60638427734375,353.9342041015625 "/>
   <polyline id="svg_20" fill-rule="evenodd" clip-rule="evenodd" points="617.6273803710938,22.935688018798828 553.0736389160156,65.54119873046875 510.0436096191406,101.5989990234375 438.3249816894531,180.24098205566406 402.4540100097656,258.8989562988281 441.91619873046875,235.9579315185547 477.7638244628906,183.52816772460938 524.390869140625,131.0770721435547 563.8413391113281,91.75341796875 606.8713684082031,58.99348831176758 657.0662231445312,26.217548370361328 617.6273803710938,22.935688018798828 "/>
   <polyline id="svg_21" fill-rule="evenodd" clip-rule="evenodd" points="743.1437377929688,32.781272888183594 800.51513671875,62.25933837890625 843.5451049804688,91.75341796875 879.386962890625,121.25282287597656 918.8374633789062,170.4220733642578 961.8849487304688,245.78750610351562 986.982421875,317.8871154785156 1019.25634765625,396.53973388671875 1037.2005615234375,498.1334228515625 1037.2005615234375,632.4923706054688 1033.5861206054688,737.357177734375 1022.8475341796875,796.3507080078125 1012.1090087890625,861.907958984375 986.982421875,930.7095947265625 961.8849487304688,992.9583129882812 990.5735473632812,973.3311157226562 1022.8475341796875,907.77392578125 1051.5303344726562,816.0045166015625 1065.8659057617188,707.8577880859375 1073.0482788085938,632.4923706054688 1062.2980346679688,521.069091796875 1055.1273803710938,422.751953125 1033.5861206054688,350.6523742675781 1008.4886474609375,281.8293151855469 965.4702758789062,190.0758819580078 933.1904907226562,134.36427307128906 883.00146484375,85.20570373535156 832.806640625,55.71162033081055 800.51513671875,29.49407196044922 743.1437377929688,32.781272888183594 "/>
   <polyline id="svg_22" fill-rule="evenodd" clip-rule="evenodd" points="674.998779296875,406.3586730957031 778.9971923828125,380.1464538574219 883.00146484375,367.04034423828125 961.8849487304688,363.75848388671875 1044.353759765625,357.2107849121094 1148.340576171875,370.31683349609375 1227.2415771484375,386.7048645019531 1367.093505859375,429.3103332519531 1417.288330078125,458.7937316894531 1492.6097412109375,517.7872314453125 1481.842041015625,593.168701171875 1442.4207763671875,573.5042114257812 1428.091064453125,547.28662109375 1442.4207763671875,530.8933715820312 1420.90283203125,504.6811218261719 1359.9052734375,462.0755920410156 1302.5396728515625,442.4217834472656 1220.0650634765625,416.2042541503906 1134.0049438476562,399.8162536621094 1062.2980346679688,393.2525634765625 979.8350830078125,386.7048645019531 893.739990234375,389.9760437011719 807.6799926757812,403.0821533203125 746.7174072265625,412.9277038574219 660.6574096679688,432.5815734863281 674.998779296875,406.3586730957031 "/>
   <polyline id="svg_23" fill-rule="evenodd" clip-rule="evenodd" points="822.0097045898438,616.1204223632812 886.5634765625,593.168701171875 940.3728637695312,573.5042114257812 1022.8475341796875,570.2223510742188 1012.1090087890625,593.168701171875 954.70263671875,593.168701171875 900.9165649414062,609.56201171875 829.1862182617188,642.3112182617188 822.0097045898438,616.1204223632812 "/>
   <polyline id="svg_24" fill-rule="evenodd" clip-rule="evenodd" points="961.8849487304688,743.9155883789062 1044.353759765625,734.0806884765625 1148.340576171875,740.6336669921875 1209.326416015625,757.0377197265625 1263.112548828125,779.9786987304688 1327.6312255859375,838.9722290039062 1345.5872802734375,871.7161865234375 1359.9052734375,953.6453247070312 1266.7037353515625,1025.7662353515625 1295.386474609375,966.7674560546875 1306.1541748046875,917.5874633789062 1302.5396728515625,865.1577758789062 1277.4422607421875,825.85009765625 1237.9859619140625,802.9091186523438 1187.7852783203125,783.2232055664062 1137.6019287109375,773.4149780273438 1076.6278076171875,760.2982788085938 1001.3120727539062,760.2982788085938 961.8849487304688,763.580078125 961.8849487304688,743.9155883789062 "/>
   <polyline id="svg_25" fill-rule="evenodd" clip-rule="evenodd" points="1101.7601928710938,580.0625610351562 1119.67529296875,599.7164306640625 1166.2847900390625,599.7164306640625 1184.22900390625,622.6574096679688 1180.614501953125,684.9274291992188 1166.2847900390625,760.2982788085938 1159.125732421875,825.85009765625 1148.340576171875,865.1577758789062 1105.3222045898438,884.8382568359375 1019.25634765625,884.8382568359375 1022.8475341796875,865.1577758789062 1062.2980346679688,871.7161865234375 1105.3222045898438,855.3441772460938 1130.413818359375,829.0999145507812 1137.6019287109375,763.580078125 1151.955078125,675.1138305664062 1148.340576171875,629.2158203125 1123.2373046875,622.6574096679688 1098.1398315429688,612.8118286132812 1101.7601928710938,580.0625610351562 "/>
   <polyline id="svg_26" fill-rule="evenodd" clip-rule="evenodd" points="807.6799926757812,1032.2926025390625 811.2711791992188,1081.4459228515625 829.1862182617188,1091.2861328125 868.6367797851562,1065.0738525390625 918.8374633789062,1035.579833984375 940.3728637695312,1006.0804443359375 936.78173828125,976.5863037109375 954.70263671875,947.0869140625 983.3911743164062,914.3377075195312 965.4702758789062,891.4019775390625 940.3728637695312,920.8961181640625 918.8374633789062,943.8317260742188 904.5076904296875,973.3311157226562 900.9165649414062,1006.0804443359375 890.1780395507812,1025.7662353515625 861.466064453125,1045.3880615234375 839.9539794921875,1061.7921142578125 825.624267578125,1022.4577026367188 807.6799926757812,1032.2926025390625 "/>
   <polyline id="svg_27" fill-rule="evenodd" clip-rule="evenodd" points="1270.2598876953125,186.78868103027344 1298.9776611328125,245.78750610351562 1334.8135986328125,294.9407653808594 1367.093505859375,347.3865051269531 1381.446533203125,380.1464538574219 1442.4207763671875,370.31683349609375 1446.000244140625,393.2525634765625 1395.811279296875,406.3586730957031 1402.9586181640625,468.6340026855469 1410.1409912109375,553.8344116210938 1402.9586181640625,632.4923706054688 1392.18505859375,684.9274291992188 1359.9052734375,766.851318359375 1359.9052734375,734.0806884765625 1377.8612060546875,632.4923706054688 1381.446533203125,550.5631713867188 1381.446533203125,488.29315185546875 1363.531494140625,419.4701232910156 1349.1666259765625,367.04034423828125 1324.0750732421875,321.1529541015625 1291.8011474609375,281.8293151855469 1263.112548828125,317.8871154785156 1291.8011474609375,347.3865051269531 1320.48388671875,363.75848388671875 1316.8927001953125,380.1464538574219 1288.2099609375,376.8645935058594 1245.168212890625,347.3865051269531 1223.6561279296875,321.1529541015625 1245.168212890625,291.6695556640625 1270.2598876953125,258.8989562988281 1252.3389892578125,216.2880859375 1227.2415771484375,193.35243225097656 1166.2847900390625,163.8583221435547 1069.4804077148438,140.92266845703125 918.8374633789062,134.36427307128906 771.8265380859375,134.36427307128906 674.998779296875,150.7469024658203 635.5599975585938,160.57647705078125 617.6273803710938,147.4703826904297 671.4075927734375,134.36427307128906 793.3444213867188,114.70511627197266 890.1780395507812,104.86486053466797 1026.444580078125,111.4232406616211 1130.413818359375,131.0770721435547 1241.6004638671875,147.4703826904297 1270.2598876953125,186.78868103027344 "/>
   <polyline id="svg_28" fill-rule="evenodd" clip-rule="evenodd" points="578.1827392578125,602.998291015625 685.7548828125,639.0560302734375 725.211181640625,652.1514892578125 700.10205078125,704.5812377929688 671.4075927734375,776.670166015625 664.2427368164062,806.164306640625 689.3460083007812,825.85009765625 746.7174072265625,855.3441772460938 782.58251953125,871.7161865234375 782.58251953125,960.2090454101562 800.51513671875,999.5220336914062 807.6799926757812,966.7674560546875 804.0830078125,917.5874633789062 814.8565063476562,888.0934448242188 807.6799926757812,855.3441772460938 768.2353515625,838.9722290039062 735.9613647460938,816.0045166015625 696.5225219726562,796.3507080078125 718.0287475585938,714.4215698242188 753.8997802734375,675.1138305664062 743.1437377929688,642.3112182617188 689.3460083007812,612.8118286132812 631.9629516601562,593.168701171875 603.2801818847656,580.0625610351562 578.1827392578125,602.998291015625 "/>
   <polyline id="svg_29" fill-rule="evenodd" clip-rule="evenodd" points="560.2501525878906,570.2223510742188 553.0736389160156,544.0048217773438 535.1351928710938,511.2395324707031 513.6347961425781,494.8515625 474.1901550292969,504.6811218261719 459.8429260253906,540.7229614257812 449.0810546875,527.6168212890625 427.5689392089844,530.8933715820312 427.5689392089844,544.0048217773438 459.8429260253906,583.3284301757812 484.9461975097656,609.56201171875 510.0436096191406,602.998291015625 502.8787841796875,580.0625610351562 492.1110534667969,550.5631713867188 488.53155517578125,527.6168212890625 506.45245361328125,521.069091796875 520.7996826171875,547.28662109375 542.3175964355469,576.7807006835938 560.2501525878906,586.6102905273438 560.2501525878906,570.2223510742188 "/>
   <polyline id="svg_30" fill-rule="evenodd" clip-rule="evenodd" points="553.0736389160156,199.90013122558594 510.0436096191406,245.78750610351562 467.0077819824219,275.2815856933594 427.5689392089844,330.99322509765625 441.91619873046875,347.3865051269531 441.91619873046875,376.8645935058594 431.1426086425781,406.3586730957031 423.9777526855469,445.6876220703125 427.5689392089844,507.9630126953125 402.4540100097656,481.7454528808594 388.1184387207031,432.5815734863281 402.4540100097656,383.42828369140625 406.0451965332031,357.2107849121094 395.29498291015625,337.5409240722656 406.0451965332031,308.046875 438.3249816894531,272.00506591796875 492.1110534667969,229.3995361328125 549.4999389648438,183.52816772460938 553.0736389160156,199.90013122558594 "/>
   <polyline id="svg_31" fill-rule="evenodd" clip-rule="evenodd" points="517.2260131835938,160.57647705078125 563.8413391113281,137.6407928466797 610.4450378417969,121.25282287597656 642.724853515625,124.5346908569336 624.792236328125,137.6407928466797 581.7622375488281,154.02874755859375 545.9087524414062,160.57647705078125 517.2260131835938,186.78868103027344 517.2260131835938,160.57647705078125 "/>
   <polyline id="svg_32" fill-rule="evenodd" clip-rule="evenodd" points="685.7548828125,160.57647705078125 689.3460083007812,180.24098205566406 678.5899658203125,203.1820068359375 674.998779296875,229.3995361328125 682.18115234375,252.3512420654297 700.10205078125,268.7178649902344 732.3760375976562,272.00506591796875 757.490966796875,268.7178649902344 768.2353515625,301.4991455078125 800.51513671875,314.6052551269531 825.624267578125,301.4991455078125 836.36279296875,272.00506591796875 839.9539794921875,222.85183715820312 875.8250122070312,183.52816772460938 872.2279052734375,147.4703826904297 847.1422119140625,160.57647705078125 832.806640625,186.78868103027344 800.51513671875,219.56996154785156 807.6799926757812,252.3512420654297 804.0830078125,285.1111755371094 789.7474365234375,275.2815856933594 782.58251953125,245.78750610351562 753.8997802734375,229.3995361328125 732.3760375976562,245.78750610351562 710.8639526367188,235.9579315185547 707.2727661132812,206.46385192871094 728.7965087890625,160.57647705078125 710.8639526367188,150.7469024658203 685.7548828125,160.57647705078125 "/>
   <polyline id="svg_33" fill-rule="evenodd" clip-rule="evenodd" points="976.2146606445312,124.5346908569336 1022.8475341796875,150.7469024658203 1062.2980346679688,160.57647705078125 1058.6776733398438,183.52816772460938 1001.3120727539062,222.85183715820312 926.0198364257812,288.3930358886719 1037.2005615234375,229.3995361328125 1058.6776733398438,242.50564575195312 1069.4804077148438,298.2172546386719 1044.353759765625,314.6052551269531 1015.6652221679688,321.1529541015625 972.6527099609375,367.04034423828125 940.3728637695312,409.6458435058594 918.8374633789062,439.1399230957031 886.5634765625,458.7937316894531 861.466064453125,462.0755920410156 865.0571899414062,491.57501220703125 854.2836303710938,527.6168212890625 829.1862182617188,534.1805419921875 814.8565063476562,521.069091796875 804.0830078125,498.1334228515625 800.51513671875,475.18170166015625 778.9971923828125,462.0755920410156 739.5525512695312,475.18170166015625 700.10205078125,498.1334228515625 692.9371948242188,475.18170166015625 746.7174072265625,445.6876220703125 793.3444213867188,432.5815734863281 822.0097045898438,439.1399230957031 822.0097045898438,468.6340026855469 832.806640625,504.6811218261719 839.9539794921875,475.18170166015625 850.7275390625,445.6876220703125 893.739990234375,432.5815734863281 936.78173828125,396.53973388671875 961.8849487304688,357.2107849121094 1012.1090087890625,308.046875 1022.8475341796875,281.8293151855469 1019.25634765625,258.8989562988281 983.3911743164062,281.8293151855469 933.1904907226562,311.3233947753906 900.9165649414062,334.2750549316406 879.386962890625,311.3233947753906 926.0198364257812,258.8989562988281 965.4702758789062,219.56996154785156 1019.25634765625,183.52816772460938 983.3911743164062,157.2946014404297 951.1113891601562,124.5346908569336 976.2146606445312,124.5346908569336 "/>
   <polyline id="svg_34" fill-rule="evenodd" clip-rule="evenodd" points="1395.811279296875,517.7872314453125 1270.2598876953125,570.2223510742188 1277.4422607421875,622.6574096679688 1266.7037353515625,678.3637084960938 1259.5272216796875,714.4215698242188 1252.3389892578125,743.9155883789062 1288.2099609375,766.851318359375 1341.9959716796875,802.9091186523438 1363.531494140625,799.6058959960938 1349.1666259765625,779.9786987304688 1320.48388671875,750.4846801757812 1288.2099609375,734.0806884765625 1298.9776611328125,668.5501098632812 1313.313232421875,609.56201171875 1320.48388671875,583.3284301757812 1363.531494140625,557.1109008789062 1395.811279296875,550.5631713867188 1395.811279296875,517.7872314453125 "/>
   <polyline id="svg_35" fill-rule="evenodd" clip-rule="evenodd" points="660.6574096679688,488.29315185546875 639.1453247070312,521.069091796875 639.1453247070312,557.1109008789062 667.833984375,580.0625610351562 703.6815795898438,593.168701171875 728.7965087890625,573.5042114257812 739.5525512695312,553.8344116210938 768.2353515625,570.2223510742188 743.1437377929688,583.3284301757812 739.5525512695312,606.2747802734375 753.8997802734375,622.6574096679688 796.9298095703125,645.6144409179688 804.0830078125,625.9285888671875 786.1737670898438,612.8118286132812 782.58251953125,599.7164306640625 796.9298095703125,583.3284301757812 800.51513671875,566.9404296875 786.1737670898438,540.7229614257812 761.0587768554688,524.3456420898438 732.3760375976562,527.6168212890625 710.8639526367188,553.8344116210938 692.9371948242188,563.6746215820312 664.2427368164062,550.5631713867188 667.833984375,527.6168212890625 682.18115234375,504.6811218261719 660.6574096679688,488.29315185546875 "/>
   <polyline id="svg_36" fill-rule="evenodd" clip-rule="evenodd" points="621.2185974121094,65.54119873046875 703.6815795898438,55.71162033081055 746.7174072265625,49.153236389160156 782.58251953125,65.54119873046875 757.490966796875,131.0770721435547 732.3760375976562,111.4232406616211 682.18115234375,104.86486053466797 639.1453247070312,95.0352783203125 667.833984375,85.20570373535156 714.4376220703125,88.4928970336914 739.5525512695312,95.0352783203125 757.490966796875,75.37078857421875 718.0287475585938,72.10492706298828 682.18115234375,72.10492706298828 617.6273803710938,85.20570373535156 621.2185974121094,65.54119873046875 "/>
   <polyline id="svg_37" fill-rule="evenodd" clip-rule="evenodd" fill="#7ED0E0" points="409.6422119140625,95.0352783203125 259.02259826660156,255.6117706298828 162.18902587890625,396.53973388671875 133.50624465942383,530.8933715820312 126.34139060974121,675.1138305664062 187.30397033691406,838.9722290039062 305.64378356933594,986.4266357421875 449.0810546875,1101.1317138671875 674.998779296875,1166.68359375 857.898193359375,1179.773681640625 1090.9574584960938,1130.631103515625 1302.5396728515625,1015.9153442382812 1424.46484375,878.2798461914062 1481.842041015625,688.2093505859375 1481.842041015625,491.57501220703125 1438.82958984375,337.5409240722656 1331.2574462890625,209.74038696289062 1205.7352294921875,117.97096252441406 1083.8101196289062,68.82307434082031 965.4702758789062,36.04179000854492 818.44775390625,16.387969970703125 718.0287475585938,13.111440658569336 574.5973815917969,39.3289909362793 409.6422119140625,95.0352783203125 "/>
   <polyline id="svg_38" fill-rule="evenodd" clip-rule="evenodd" fill="#CCEAEE" points="1047.9391479492188,127.8165512084961 965.4702758789062,98.317138671875 868.6367797851562,81.9291763305664 778.9971923828125,88.4928970336914 721.6199951171875,127.8165512084961 728.7965087890625,190.0758819580078 807.6799926757812,245.78750610351562 926.0198364257812,301.4991455078125 1040.7684326171875,386.7048645019531 1144.772705078125,485.0166320800781 1198.558837890625,583.3284301757812 1216.5030517578125,658.7098999023438 1212.888427734375,740.6336669921875 1202.14990234375,776.670166015625 1241.6004638671875,789.7922973632812 1281.0626220703125,740.6336669921875 1306.1541748046875,661.9918212890625 1306.1541748046875,586.6102905273438 1288.2099609375,465.35748291015625 1216.5030517578125,301.4991455078125 1123.2373046875,186.78868103027344 1047.9391479492188,127.8165512084961 "/>
   <polyline id="svg_39" fill-rule="evenodd" clip-rule="evenodd" fill="#26BCD6" points="423.9777526855469,108.14672088623047 395.29498291015625,150.7469024658203 398.8803405761719,213.01158142089844 456.251708984375,275.2815856933594 610.4450378417969,337.5409240722656 753.8997802734375,380.1464538574219 850.7275390625,435.85809326171875 933.1904907226562,524.3456420898438 979.8350830078125,606.2747802734375 1012.1090087890625,691.48583984375 1037.2005615234375,812.72265625 1037.2005615234375,953.6453247070312 1012.1090087890625,1048.696533203125 965.4702758789062,1117.498291015625 879.386962890625,1166.68359375 757.490966796875,1173.2205810546875 560.2501525878906,1140.4447021484375 398.8803405761719,1074.887451171875 276.9551696777344,973.3311157226562 180.12743377685547,832.4031372070312 126.34139060974121,625.9285888671875 151.4388198852539,455.52789306640625 201.65120697021484,308.046875 291.2965545654297,199.90013122558594 423.9777526855469,108.14672088623047 "/>
   <polyline id="svg_40" fill-rule="evenodd" clip-rule="evenodd" fill="#73C167" points="1259.5272216796875,163.8583221435547 1281.0626220703125,262.17547607421875 1248.78857421875,321.1529541015625 1306.1541748046875,367.04034423828125 1399.367431640625,475.18170166015625 1395.811279296875,534.1805419921875 1489.0128173828125,583.3284301757812 1449.568115234375,383.42828369140625 1370.7080078125,249.0640411376953 1259.5272216796875,163.8583221435547 "/>
   <polyline id="svg_41" fill-rule="evenodd" clip-rule="evenodd" fill="#54B948" points="169.37139511108398,835.6636962890625 269.7786407470703,720.9852294921875 273.3698272705078,848.7858276367188 327.15003967285156,861.907958984375 330.7353820800781,1012.6387329101562 226.74279022216797,927.43310546875 169.37139511108398,835.6636962890625 "/>
   <polyline id="svg_42" fill-rule="evenodd" clip-rule="evenodd" fill="#54B948" points="1367.093505859375,933.9915161132812 1370.7080078125,852.0623168945312 1334.8135986328125,789.7922973632812 1273.8802490234375,730.798828125 1288.2099609375,576.7807006835938 1385.0377197265625,544.0048217773438 1474.69482421875,547.28662109375 1481.842041015625,675.1138305664062 1446.000244140625,822.5682373046875 1367.093505859375,933.9915161132812 "/>
   <polyline id="svg_43" fill-rule="evenodd" clip-rule="evenodd" fill="#FFFFFF" points="664.2427368164062,1160.1251220703125 778.9971923828125,1117.498291015625 897.3312377929688,1107.6846923828125 1055.1273803710938,1088.004150390625 1033.5861206054688,1143.72119140625 890.1780395507812,1173.2205810546875 761.0587768554688,1183.0555419921875 664.2427368164062,1160.1251220703125 "/>
   <polyline id="svg_44" fill-rule="evenodd" clip-rule="evenodd" fill="#54B948" points="172.95674514770508,396.53973388671875 226.74279022216797,435.85809326171875 201.65120697021484,544.0048217773438 126.34139060974121,589.8868408203125 172.95674514770508,396.53973388671875 "/>
   <polyline id="svg_45" fill-rule="evenodd" clip-rule="evenodd" fill="#54B948" points="818.44775390625,1068.355712890625 789.7474365234375,947.0869140625 796.9298095703125,871.7161865234375 689.3460083007812,799.6058959960938 707.2727661132812,727.5436401367188 725.211181640625,665.2416381835938 836.36279296875,616.1204223632812 965.4702758789062,576.7807006835938 1047.9391479492188,583.3284301757812 1155.51123046875,622.6574096679688 1159.125732421875,707.8577880859375 1137.6019287109375,858.599365234375 1062.2980346679688,881.5296630859375 1026.444580078125,881.5296630859375 947.5610961914062,920.8961181640625 915.28125,983.1393432617188 900.9165649414062,1032.2926025390625 829.1862182617188,1091.2861328125 818.44775390625,1068.355712890625 "/>
   <polyline id="svg_46" fill-rule="evenodd" clip-rule="evenodd" fill="#54B948" points="506.45245361328125,517.7872314453125 556.6648254394531,570.2223510742188 585.3475646972656,596.4345092773438 743.1437377929688,661.9918212890625 796.9298095703125,639.0560302734375 775.4002075195312,622.6574096679688 786.1737670898438,557.1109008789062 739.5525512695312,534.1805419921875 692.9371948242188,580.0625610351562 642.724853515625,553.8344116210938 657.0662231445312,498.1334228515625 506.45245361328125,517.7872314453125 "/>
   <polyline id="svg_47" fill-rule="evenodd" clip-rule="evenodd" fill="#54B948" points="621.2185974121094,72.10492706298828 732.3760375976562,62.25933837890625 775.4002075195312,72.10492706298828 753.8997802734375,111.4232406616211 685.7548828125,95.0352783203125 642.724853515625,95.0352783203125 621.2185974121094,72.10492706298828 "/>
   <polyline id="svg_48" fill-rule="evenodd" clip-rule="evenodd" fill="#49A942" points="628.3834228515625,131.0770721435547 531.5615234375,167.13487243652344 506.45245361328125,219.56996154785156 409.6422119140625,321.1529541015625 416.8012390136719,380.1464538574219 409.6422119140625,448.9695129394531 441.91619873046875,530.8933715820312 484.9461975097656,599.7164306640625 499.2875671386719,521.069091796875 556.6648254394531,580.0625610351562 649.9013671875,511.2395324707031 743.1437377929688,462.0755920410156 800.51513671875,448.9695129394531 832.806640625,527.6168212890625 865.0571899414062,448.9695129394531 904.5076904296875,429.3103332519531 961.8849487304688,370.31683349609375 1055.1273803710938,285.1111755371094 1033.5861206054688,239.22378540039062 900.9165649414062,321.1529541015625 947.5610961914062,242.50564575195312 1037.2005615234375,170.4220733642578 958.2996215820312,121.25282287597656 886.5634765625,144.18850708007812 818.44775390625,216.2880859375 818.44775390625,294.9407653808594 789.7474365234375,301.4991455078125 764.6558227539062,255.6117706298828 692.9371948242188,255.6117706298828 685.7548828125,219.56996154785156 700.10205078125,157.2946014404297 685.7548828125,137.6407928466797 628.3834228515625,131.0770721435547 "/>
   <polyline id="svg_49" fill-rule="evenodd" clip-rule="evenodd" points="814.8565063476562,9.82957935333252 710.8639526367188,0 603.2801818847656,16.387969970703125 502.8787841796875,42.60551834106445 438.3249816894531,72.10492706298828 373.7712097167969,111.4232406616211 309.22914123535156,160.57647705078125 241.09002685546875,239.22378540039062 201.65120697021484,291.6695556640625 162.18902587890625,363.75848388671875 133.50624465942383,429.3103332519531 115.59118676185608,517.7872314453125 112,599.7164306640625 122.7502031326294,701.3047485351562 151.4388198852539,789.7922973632812 187.30397033691406,878.2798461914062 233.92516326904297,947.0869140625 294.8877410888672,1012.6387329101562 363.0151824951172,1068.355712890625 449.0810546875,1117.498291015625 538.7264099121094,1150.279541015625 639.1453247070312,1176.4971923828125 746.7174072265625,1192.8690185546875 847.1422119140625,1196.1510009765625 951.1113891601562,1186.310791015625 1073.0482788085938,1156.811279296875 1151.955078125,1130.631103515625 1248.78857421875,1071.63232421875 1334.8135986328125,1006.0804443359375 1381.446533203125,950.3687744140625 1438.82958984375,861.907958984375 1460.364990234375,789.7922973632812 1463.921142578125,743.9155883789062 1446.000244140625,714.4215698242188 1438.82958984375,763.580078125 1424.46484375,816.0045166015625 1385.0377197265625,871.7161865234375 1381.446533203125,832.4031372070312 1356.3548583984375,838.9722290039062 1359.9052734375,874.9979858398438 1363.531494140625,914.3377075195312 1306.1541748046875,963.4641723632812 1270.2598876953125,1006.0804443359375 1205.7352294921875,1045.3880615234375 1141.1815185546875,1081.4459228515625 1090.9574584960938,1110.9453125 990.5735473632812,1133.8756103515625 883.00146484375,1146.9976806640625 782.58251953125,1150.279541015625 682.18115234375,1143.72119140625 603.2801818847656,1117.498291015625 492.1110534667969,1084.75439453125 420.3924255371094,1042.13818359375 359.42401123046875,992.9583129882812 273.3698272705078,927.43310546875 219.57794189453125,848.7858276367188 187.30397033691406,786.5103759765625 162.18902587890625,714.4215698242188 151.4388198852539,652.1514892578125 147.8476333618164,599.7164306640625 158.61535263061523,527.6168212890625 172.95674514770508,458.7937316894531 205.2365493774414,376.8645935058594 259.02259826660156,281.8293151855469 312.8086395263672,219.56996154785156 366.60638427734375,160.57647705078125 441.91619873046875,104.86486053466797 531.5615234375,68.82307434082031 610.4450378417969,42.60551834106445 721.6199951171875,26.217548370361328 814.8565063476562,9.82957935333252 "/>
   <polyline id="svg_50" fill-rule="evenodd" clip-rule="evenodd" points="922.4520263671875,19.669830322265625 1044.353759765625,49.153236389160156 1130.413818359375,78.65264892578125 1216.5030517578125,114.70511627197266 1291.8011474609375,163.8583221435547 1395.811279296875,258.8989562988281 1449.568115234375,344.10467529296875 1481.842041015625,409.6458435058594 1503.37744140625,481.7454528808594 1514.115966796875,557.1109008789062 1506.9337158203125,642.3112182617188 1485.45654296875,734.0806884765625 1474.69482421875,678.3637084960938 1456.73876953125,619.3702392578125 1460.364990234375,557.1109008789062 1453.1826171875,462.0755920410156 1431.641357421875,399.8162536621094 1399.367431640625,337.5409240722656 1363.531494140625,281.8293151855469 1316.8927001953125,239.22378540039062 1223.6561279296875,160.57647705078125 1144.772705078125,114.70511627197266 1058.6776733398438,85.20570373535156 961.8849487304688,49.153236389160156 922.4520263671875,19.669830322265625 "/>
   <polyline id="svg_51" fill-rule="evenodd" clip-rule="evenodd" points="822.0097045898438,616.1204223632812 886.5634765625,593.168701171875 940.3728637695312,573.5042114257812 1022.8475341796875,570.2223510742188 1012.1090087890625,593.168701171875 954.70263671875,593.168701171875 900.9165649414062,609.56201171875 829.1862182617188,642.3112182617188 822.0097045898438,616.1204223632812 "/>
   <polyline id="svg_52" fill-rule="evenodd" clip-rule="evenodd" points="1101.7601928710938,580.0625610351562 1119.67529296875,599.7164306640625 1166.2847900390625,599.7164306640625 1184.22900390625,622.6574096679688 1180.614501953125,684.9274291992188 1166.2847900390625,760.2982788085938 1159.125732421875,825.85009765625 1148.340576171875,865.1577758789062 1105.3222045898438,884.8382568359375 1019.25634765625,884.8382568359375 1022.8475341796875,865.1577758789062 1062.2980346679688,871.7161865234375 1105.3222045898438,855.3441772460938 1130.413818359375,829.0999145507812 1137.6019287109375,763.580078125 1151.955078125,675.1138305664062 1148.340576171875,629.2158203125 1123.2373046875,622.6574096679688 1098.1398315429688,612.8118286132812 1101.7601928710938,580.0625610351562 "/>
   <polyline id="svg_53" fill-rule="evenodd" clip-rule="evenodd" points="807.6799926757812,1032.2926025390625 811.2711791992188,1081.4459228515625 829.1862182617188,1091.2861328125 868.6367797851562,1065.0738525390625 918.8374633789062,1035.579833984375 940.3728637695312,1006.0804443359375 936.78173828125,976.5863037109375 954.70263671875,947.0869140625 983.3911743164062,914.3377075195312 965.4702758789062,891.4019775390625 940.3728637695312,920.8961181640625 918.8374633789062,943.8317260742188 904.5076904296875,973.3311157226562 900.9165649414062,1006.0804443359375 890.1780395507812,1025.7662353515625 861.466064453125,1045.3880615234375 839.9539794921875,1061.7921142578125 825.624267578125,1022.4577026367188 807.6799926757812,1032.2926025390625 "/>
   <polyline id="svg_54" fill-rule="evenodd" clip-rule="evenodd" points="578.1827392578125,602.998291015625 685.7548828125,639.0560302734375 725.211181640625,652.1514892578125 700.10205078125,704.5812377929688 671.4075927734375,776.670166015625 664.2427368164062,806.164306640625 689.3460083007812,825.85009765625 746.7174072265625,855.3441772460938 782.58251953125,871.7161865234375 782.58251953125,960.2090454101562 800.51513671875,999.5220336914062 807.6799926757812,966.7674560546875 804.0830078125,917.5874633789062 814.8565063476562,888.0934448242188 807.6799926757812,855.3441772460938 768.2353515625,838.9722290039062 735.9613647460938,816.0045166015625 696.5225219726562,796.3507080078125 718.0287475585938,714.4215698242188 753.8997802734375,675.1138305664062 743.1437377929688,642.3112182617188 689.3460083007812,612.8118286132812 631.9629516601562,593.168701171875 603.2801818847656,580.0625610351562 578.1827392578125,602.998291015625 "/>
   <polyline id="svg_55" fill-rule="evenodd" clip-rule="evenodd" points="560.2501525878906,570.2223510742188 553.0736389160156,544.0048217773438 535.1351928710938,511.2395324707031 513.6347961425781,494.8515625 474.1901550292969,504.6811218261719 459.8429260253906,540.7229614257812 449.0810546875,527.6168212890625 427.5689392089844,530.8933715820312 427.5689392089844,544.0048217773438 459.8429260253906,583.3284301757812 484.9461975097656,609.56201171875 510.0436096191406,602.998291015625 502.8787841796875,580.0625610351562 492.1110534667969,550.5631713867188 488.53155517578125,527.6168212890625 506.45245361328125,521.069091796875 520.7996826171875,547.28662109375 542.3175964355469,576.7807006835938 560.2501525878906,586.6102905273438 560.2501525878906,570.2223510742188 "/>
   <polyline id="svg_56" fill-rule="evenodd" clip-rule="evenodd" points="553.0736389160156,199.90013122558594 510.0436096191406,245.78750610351562 467.0077819824219,275.2815856933594 427.5689392089844,330.99322509765625 441.91619873046875,347.3865051269531 441.91619873046875,376.8645935058594 431.1426086425781,406.3586730957031 423.9777526855469,445.6876220703125 427.5689392089844,507.9630126953125 402.4540100097656,481.7454528808594 388.1184387207031,432.5815734863281 402.4540100097656,383.42828369140625 406.0451965332031,357.2107849121094 395.29498291015625,337.5409240722656 406.0451965332031,308.046875 438.3249816894531,272.00506591796875 492.1110534667969,229.3995361328125 549.4999389648438,183.52816772460938 553.0736389160156,199.90013122558594 "/>
   <polyline id="svg_57" fill-rule="evenodd" clip-rule="evenodd" points="517.2260131835938,160.57647705078125 563.8413391113281,137.6407928466797 610.4450378417969,121.25282287597656 642.724853515625,124.5346908569336 624.792236328125,137.6407928466797 581.7622375488281,154.02874755859375 545.9087524414062,160.57647705078125 517.2260131835938,186.78868103027344 517.2260131835938,160.57647705078125 "/>
   <polyline id="svg_58" fill-rule="evenodd" clip-rule="evenodd" points="685.7548828125,160.57647705078125 689.3460083007812,180.24098205566406 678.5899658203125,203.1820068359375 674.998779296875,229.3995361328125 682.18115234375,252.3512420654297 700.10205078125,268.7178649902344 732.3760375976562,272.00506591796875 757.490966796875,268.7178649902344 768.2353515625,301.4991455078125 800.51513671875,314.6052551269531 825.624267578125,301.4991455078125 836.36279296875,272.00506591796875 839.9539794921875,222.85183715820312 875.8250122070312,183.52816772460938 872.2279052734375,147.4703826904297 847.1422119140625,160.57647705078125 832.806640625,186.78868103027344 800.51513671875,219.56996154785156 807.6799926757812,252.3512420654297 804.0830078125,285.1111755371094 789.7474365234375,275.2815856933594 782.58251953125,245.78750610351562 753.8997802734375,229.3995361328125 732.3760375976562,245.78750610351562 710.8639526367188,235.9579315185547 707.2727661132812,206.46385192871094 728.7965087890625,160.57647705078125 710.8639526367188,150.7469024658203 685.7548828125,160.57647705078125 "/>
   <polyline id="svg_59" fill-rule="evenodd" clip-rule="evenodd" points="976.2146606445312,124.5346908569336 1022.8475341796875,150.7469024658203 1062.2980346679688,160.57647705078125 1058.6776733398438,183.52816772460938 1001.3120727539062,222.85183715820312 926.0198364257812,288.3930358886719 1037.2005615234375,229.3995361328125 1058.6776733398438,242.50564575195312 1069.4804077148438,298.2172546386719 1044.353759765625,314.6052551269531 1015.6652221679688,321.1529541015625 972.6527099609375,367.04034423828125 940.3728637695312,409.6458435058594 918.8374633789062,439.1399230957031 886.5634765625,458.7937316894531 861.466064453125,462.0755920410156 865.0571899414062,491.57501220703125 854.2836303710938,527.6168212890625 829.1862182617188,534.1805419921875 814.8565063476562,521.069091796875 804.0830078125,498.1334228515625 800.51513671875,475.18170166015625 778.9971923828125,462.0755920410156 739.5525512695312,475.18170166015625 700.10205078125,498.1334228515625 692.9371948242188,475.18170166015625 746.7174072265625,445.6876220703125 793.3444213867188,432.5815734863281 822.0097045898438,439.1399230957031 822.0097045898438,468.6340026855469 832.806640625,504.6811218261719 839.9539794921875,475.18170166015625 850.7275390625,445.6876220703125 893.739990234375,432.5815734863281 936.78173828125,396.53973388671875 961.8849487304688,357.2107849121094 1012.1090087890625,308.046875 1022.8475341796875,281.8293151855469 1019.25634765625,258.8989562988281 983.3911743164062,281.8293151855469 933.1904907226562,311.3233947753906 900.9165649414062,334.2750549316406 879.386962890625,311.3233947753906 926.0198364257812,258.8989562988281 965.4702758789062,219.56996154785156 1019.25634765625,183.52816772460938 983.3911743164062,157.2946014404297 951.1113891601562,124.5346908569336 976.2146606445312,124.5346908569336 "/>
   <polyline id="svg_60" fill-rule="evenodd" clip-rule="evenodd" points="1395.811279296875,517.7872314453125 1270.2598876953125,570.2223510742188 1277.4422607421875,622.6574096679688 1266.7037353515625,678.3637084960938 1259.5272216796875,714.4215698242188 1252.3389892578125,743.9155883789062 1288.2099609375,766.851318359375 1341.9959716796875,802.9091186523438 1363.531494140625,799.6058959960938 1349.1666259765625,779.9786987304688 1320.48388671875,750.4846801757812 1288.2099609375,734.0806884765625 1298.9776611328125,668.5501098632812 1313.313232421875,609.56201171875 1320.48388671875,583.3284301757812 1363.531494140625,557.1109008789062 1395.811279296875,550.5631713867188 1395.811279296875,517.7872314453125 "/>
   <polyline id="svg_61" fill-rule="evenodd" clip-rule="evenodd" points="660.6574096679688,488.29315185546875 639.1453247070312,521.069091796875 639.1453247070312,557.1109008789062 667.833984375,580.0625610351562 703.6815795898438,593.168701171875 728.7965087890625,573.5042114257812 739.5525512695312,553.8344116210938 768.2353515625,570.2223510742188 743.1437377929688,583.3284301757812 739.5525512695312,606.2747802734375 753.8997802734375,622.6574096679688 796.9298095703125,645.6144409179688 804.0830078125,625.9285888671875 786.1737670898438,612.8118286132812 782.58251953125,599.7164306640625 796.9298095703125,583.3284301757812 800.51513671875,566.9404296875 786.1737670898438,540.7229614257812 761.0587768554688,524.3456420898438 732.3760375976562,527.6168212890625 710.8639526367188,553.8344116210938 692.9371948242188,563.6746215820312 664.2427368164062,550.5631713867188 667.833984375,527.6168212890625 682.18115234375,504.6811218261719 660.6574096679688,488.29315185546875 "/>
   <polyline id="svg_62" fill-rule="evenodd" clip-rule="evenodd" points="621.2185974121094,65.54119873046875 703.6815795898438,55.71162033081055 746.7174072265625,49.153236389160156 782.58251953125,65.54119873046875 757.490966796875,131.0770721435547 732.3760375976562,111.4232406616211 682.18115234375,104.86486053466797 639.1453247070312,95.0352783203125 667.833984375,85.20570373535156 714.4376220703125,88.4928970336914 739.5525512695312,95.0352783203125 757.490966796875,75.37078857421875 718.0287475585938,72.10492706298828 682.18115234375,72.10492706298828 617.6273803710938,85.20570373535156 621.2185974121094,65.54119873046875 "/>
   <polyline id="svg_63" fill-rule="evenodd" clip-rule="evenodd" points="140.6827793121338,593.168701171875 162.18902587890625,563.6746215820312 194.46883392333984,553.8344116210938 219.57794189453125,547.28662109375 223.15744018554688,530.8933715820312 230.33397674560547,481.7454528808594 244.68121337890625,439.1399230957031 241.09002685546875,419.4701232910156 176.5362548828125,389.9760437011719 162.18902587890625,422.751953125 201.65120697021484,432.5815734863281 201.65120697021484,462.0755920410156 190.89515686035156,494.8515625 183.71862030029297,527.6168212890625 165.78020858764648,544.0048217773438 133.50624465942383,550.5631713867188 140.6827793121338,593.168701171875 "/>
  </g>
 </g>
</svg>