<?xml version="1.0" encoding="utf-8"?>
<!-- Generator: Adobe Illustrator 16.0.0, SVG Export Plug-In . SVG Version: 6.00 Build 0)  -->
<!DOCTYPE svg PUBLIC "-//W3C//DTD SVG 1.1//EN" "http://www.w3.org/Graphics/SVG/1.1/DTD/svg11.dtd">
<svg version="1.1" id="Layer_1" xmlns="http://www.w3.org/2000/svg" xmlns:xlink="http://www.w3.org/1999/xlink" x="0px" y="0px"
     width="175.875px" height="197.13px" viewBox="12.062 1.436 175.875 197.13" enable-background="new 12.062 1.436 175.875 197.13"
     xml:space="preserve">
<g>
    <path fill="#FF6900" d="M100.85,165.188c-0.643,0.17-7.774,3.082-12.868,3.082c-21.646,0-34.538-12.354-34.538-36.569
        c0-21.923,11.69-35.942,32.66-34.987c4.104,0.187,9.983,1.609,13.293,2.696c6.729,2.217,11.292-7.79,13.634-15.816l1.943-6.707
        c0,0-15.323-8.281-42.09-8.281c-33.369,0-60.823,22.562-60.823,65.307c0,36.677,25.792,63.262,58.068,64.561
        c31.213,1.258,45.527-10.559,45.527-10.559S110.107,162.756,100.85,165.188z M138.652,191.994h16.994
        c12.389,0,22.437-10.041,22.437-22.434V73.717h-39.431V191.994L138.652,191.994z M169.875,14.43c-0.952-4.466-2-7.577-3.627-10.329
        c-1.207-1.869-3.225-2.349-4.492-2.491c-1.458-0.222-4.262-0.213-5.427-0.077c-1.652,0.194-2.78,0.524-3.968,1.788
        c-2.178,2.744-3.853,5.964-5.479,11.222c3.768-0.643,7.812-0.997,12.032-0.997C162.77,13.545,166.445,13.858,169.875,14.43z
         M173.111,56.901c5.643-3.2,10.136-8.189,12.697-14.204c-2.838,1.516-6.248,2.789-10.108,3.742
        C175.172,50.577,174.312,53.963,173.111,56.901z M145.747,47.43c0.965,4.506,2.035,7.644,3.709,10.424
        c1.242,1.888,3.331,2.38,4.644,2.531c1.506,0.229,4.412,0.234,5.623,0.103c1.711-0.187,2.879-0.512,4.113-1.78
        c2.271-2.754,4.021-5.989,5.729-11.277c-3.903,0.629-8.098,0.969-12.467,0.949C153.105,48.359,149.298,48.023,145.747,47.43z
         M186.033,20.004c-3.1-7.707-9.333-13.815-17.127-16.74c1.921,3.295,3.578,7.38,4.836,11.947
        C178.523,16.345,182.697,18.003,186.033,20.004z M158.477,44.586c4.277,0,8.234-0.179,11.832-0.54
        c0.736-3.844,1.162-8.189,1.162-12.976c0-3.857-0.225-7.475-0.631-10.809c-5.042-1.282-10.682-2.074-16.525-2.074
        c-3.11,0-5.947,0.189-8.535,0.529c-0.928,4.164-1.463,8.802-1.428,13.759c0.028,3.639,0.252,7,0.604,10.081
        C148.98,43.814,153.523,44.586,158.477,44.586z M141.098,46.59c-3.865-1.021-7.283-2.7-10.109-4.295
        c2.849,6.966,8.263,12.605,15.07,15.745C144.033,54.782,142.318,51.114,141.098,46.59z M139.83,19.78
        c-3.708,0.775-6.321,1.819-8.614,3.182c-1.557,1.013-1.97,2.729-2.098,3.81c-0.195,1.238-0.211,3.625-0.108,4.619
        c0.147,1.409,0.479,2.678,1.516,3.697c1.438,1.608,5.246,4.399,9.306,5.837C138.309,32.974,138.591,26.966,139.83,19.78z
         M143.2,5.606c-5.474,3.292-9.792,8.295-12.226,14.271c2.643-1.509,5.789-2.817,9.338-3.842
        C140.99,12.125,141.958,8.604,143.2,5.606z M187.896,31.064c-0.198-1.448-0.588-2.743-1.717-3.763
        c-1.566-1.613-6.551-4.317-10.878-5.667c1.857,8.146,1.749,14.351,0.669,21.8c3.889-0.92,7.176-1.943,9.553-3.423
        c1.607-1.093,1.988-2.876,2.092-3.992C187.783,34.732,188.038,32.088,187.896,31.064z"/>
</g>
</svg>
